<svg xmlns="http://www.w3.org/2000/svg" width="2133.333" height="2133.333" preserveAspectRatio="xMidYMid meet" version="1.0" viewBox="0 0 1600 1600"><metadata>Created by potrace 1.11, written by Peter Selinger 2001-2013</metadata><g fill="#000" stroke="none"><path d="M7685 15350 c-747 -49 -1447 -236 -2098 -561 -232 -116 -365 -194 -592 -345 -321 -213 -562 -411 -835 -684 -580 -579 -1010 -1262 -1287 -2040 -150 -422 -258 -941 -293 -1410 -13 -175 -13 -609 0 -781 56 -724 236 -1385 551 -2018 271 -546 572 -964 1009 -1402 287 -288 558 -511 868 -714 l121 -80 0 -1631 c0 -1161 3 -1639 11 -1660 13 -33 670 -697 712 -720 22 -11 86 -14 322 -14 l296 0 27 -32 c287 -336 646 -516 1173 -590 143 -20 555 -17 700 5 486 74 863 261 1105 550 l57 67 295 0 c236 0 299 3 321 14 15 8 181 169 369 358 261 261 345 351 353 378 6 23 10 605 10 1656 l0 1621 118 78 c1038 689 1792 1676 2175 2850 92 279 164 588 206 881 43 293 54 457 54 794 0 417 -28 706 -103 1079 -184 901 -585 1726 -1188 2441 -136 161 -461 486 -622 622 -872 735 -1891 1164 -3025 1273 -198 19 -622 27 -810 15z m750 -330 c444 -42 797 -115 1195 -249 1273 -428 2333 -1348 2939 -2550 300 -595 468 -1185 532 -1871 7 -74 13 -268 13 -430 0 -300 -10 -451 -45 -710 -118 -859 -450 -1664 -974 -2359 -371 -493 -854 -933 -1387 -1265 -160 -100 -148 -51 -148 -624 l0 -472 -2553 0 -2554 0 -6 167 c-4 91 -7 305 -7 475 0 346 -2 359 -67 403 -21 14 -108 72 -193 128 -309 204 -531 386 -805 661 -276 276 -449 487 -650 791 -414 625 -686 1347 -789 2090 -37 266 -41 334 -41 720 0 424 8 522 66 865 230 1367 1037 2606 2204 3385 498 332 1032 570 1590 708 343 85 596 123 1025 151 95 6 540 -3 655 -14z m1763 -10857 l352 -6 0 -159 0 -158 -32 -1 c-18 0 -118 -6 -223 -13 -276 -19 -4772 -286 -4812 -286 l-33 0 0 315 0 315 2198 0 c1208 0 2356 -3 2550 -7z m352 -968 l0 -315 -32 -1 c-18 0 -118 -6 -223 -13 -276 -19 -4772 -286 -4812 -286 l-33 0 0 320 0 320 38 0 c20 0 1031 59 2246 130 1215 71 2275 133 2355 136 80 3 198 9 261 13 63 5 134 9 158 10 l42 1 0 -315z m0 -843 l0 -197 -270 -270 -270 -270 -2007 -3 -2006 -4 -274 274 -273 273 0 52 0 53 38 0 c20 0 1031 59 2246 130 1215 71 2275 133 2355 136 80 3 198 9 261 13 63 5 134 9 158 10 l42 1 0 -198z m-3150 -1133 c83 -75 191 -149 282 -195 38 -19 68 -36 68 -38 0 -6 -193 24 -273 43 -173 41 -385 133 -503 216 l-49 35 203 0 203 0 69 -61z" transform="translate(0.000000,1600.000000) scale(0.100000,-0.100000)"/><path d="M7195 13424 c-297 -66 -532 -294 -609 -590 -9 -34 -16 -76 -16 -92 0 -17 -3 -33 -8 -36 -4 -2 -43 5 -87 16 -121 31 -349 31 -465 0 -174 -47 -369 -164 -479 -288 -208 -235 -295 -562 -226 -849 8 -33 14 -63 15 -66 0 -4 -17 -10 -37 -14 -21 -4 -76 -21 -123 -39 -220 -82 -392 -262 -473 -494 -26 -75 -31 -105 -35 -217 -4 -110 -1 -144 17 -215 42 -170 151 -344 275 -439 l56 -43 -43 -48 c-84 -93 -147 -266 -147 -402 0 -82 23 -192 56 -267 30 -68 104 -171 148 -208 l34 -28 -24 -85 c-38 -132 -54 -242 -54 -380 0 -691 522 -1237 1220 -1277 l106 -6 18 -46 c55 -135 177 -294 297 -387 412 -317 1015 -250 1337 149 l56 70 26 -34 c265 -354 745 -482 1152 -309 215 92 433 312 504 510 l17 47 114 7 c337 19 610 140 844 375 151 151 239 290 307 481 53 150 67 238 67 420 0 172 -7 222 -51 370 l-26 86 64 66 c152 157 213 389 159 600 -23 91 -53 152 -114 234 l-45 62 102 103 c88 90 108 117 148 199 69 140 82 199 83 365 0 119 -3 151 -23 215 -90 283 -301 488 -577 557 l-70 18 18 85 c24 116 18 321 -12 435 -98 361 -402 636 -775 701 -114 20 -279 14 -386 -15 -41 -11 -78 -21 -82 -21 -3 0 -9 24 -13 53 -28 204 -154 415 -320 532 -139 99 -268 144 -431 152 -240 12 -436 -64 -609 -237 l-74 -73 -52 57 c-90 99 -222 181 -364 226 -93 30 -288 37 -390 14z m278 -319 c178 -46 320 -193 357 -368 7 -37 10 -271 8 -758 l-3 -704 -23 -57 c-36 -90 -100 -169 -178 -220 -112 -73 -203 -100 -386 -113 -106 -7 -141 -23 -182 -78 -29 -40 -29 -134 0 -173 53 -72 119 -86 296 -65 170 20 349 80 449 152 l29 20 0 -789 0 -789 -40 -51 c-42 -53 -122 -111 -178 -130 -18 -6 -59 -14 -93 -18 -107 -12 -164 -69 -164 -164 0 -63 16 -95 68 -134 56 -42 223 -28 345 29 30 14 56 25 58 25 2 0 4 -245 4 -545 0 -589 -3 -634 -55 -750 -104 -236 -319 -375 -579 -375 -118 0 -203 18 -289 61 -222 110 -347 320 -347 583 0 45 7 109 15 141 21 85 79 194 134 256 27 30 55 68 65 86 38 75 2 174 -77 212 -76 37 -126 25 -200 -47 -143 -139 -248 -364 -265 -572 l-7 -85 -55 3 c-221 12 -422 99 -583 252 -137 130 -216 254 -270 426 -106 337 2 742 262 976 247 222 561 303 881 228 111 -26 286 -114 370 -185 123 -104 129 -107 174 -112 116 -14 203 79 181 193 -14 77 -189 225 -375 318 -191 96 -363 136 -580 136 -265 0 -490 -68 -710 -215 -98 -65 -244 -200 -290 -268 -14 -20 -27 -37 -30 -37 -3 0 -17 18 -32 41 -74 114 -58 272 38 379 54 60 123 92 216 100 63 6 84 12 114 35 47 36 67 85 61 148 -9 96 -64 136 -204 148 -118 10 -199 45 -278 120 -68 64 -107 125 -135 209 -18 54 -21 81 -18 160 6 116 31 186 96 273 83 109 199 171 344 184 l66 6 64 -68 c170 -183 392 -289 634 -302 115 -7 158 7 197 61 31 43 31 142 1 183 -39 53 -76 69 -168 76 -151 12 -288 69 -400 167 -58 52 -145 189 -173 277 -33 100 -37 265 -9 357 35 117 83 196 175 286 131 131 257 183 441 184 115 1 180 -14 285 -64 93 -45 100 -51 165 -152 137 -215 360 -347 615 -365 72 -5 89 -3 126 16 62 30 83 63 87 136 2 47 -1 67 -17 92 -32 51 -65 66 -175 80 -199 25 -332 126 -409 309 -144 342 193 724 556 629z m1266 5 c173 -33 334 -193 372 -370 16 -76 6 -192 -24 -267 -73 -183 -218 -288 -425 -308 -78 -8 -119 -28 -156 -78 -29 -40 -29 -134 0 -173 44 -60 67 -69 172 -68 268 1 521 156 665 406 33 58 111 108 222 145 66 21 99 26 190 26 197 1 321 -48 456 -183 98 -97 149 -187 175 -312 22 -103 14 -251 -19 -340 -91 -250 -307 -414 -572 -434 -134 -11 -190 -59 -190 -164 0 -66 18 -98 76 -139 32 -22 40 -23 144 -18 236 12 450 110 624 288 72 73 81 79 119 79 118 0 230 -48 323 -137 198 -191 200 -484 5 -679 -85 -85 -167 -123 -288 -133 -104 -9 -146 -26 -180 -73 -31 -45 -33 -143 -2 -184 38 -52 68 -66 151 -74 43 -4 95 -14 115 -23 53 -22 125 -93 156 -152 23 -43 27 -62 27 -140 0 -79 -4 -97 -27 -142 -15 -28 -33 -55 -39 -59 -7 -4 -22 8 -37 27 -54 71 -187 199 -261 253 -219 157 -467 236 -746 236 -205 0 -376 -38 -550 -120 -152 -73 -335 -211 -382 -288 -63 -103 14 -242 134 -242 55 0 89 17 160 81 399 362 1033 318 1369 -96 78 -96 163 -264 196 -385 19 -72 23 -109 22 -240 -1 -138 -4 -165 -27 -245 -94 -314 -318 -550 -615 -648 -95 -32 -283 -64 -303 -51 -3 2 -9 43 -12 91 -10 154 -81 347 -172 469 -52 68 -115 133 -147 150 -64 33 -169 3 -207 -61 -46 -76 -34 -137 44 -227 127 -146 182 -322 155 -504 -23 -161 -80 -278 -185 -378 -120 -115 -259 -168 -440 -169 -129 -1 -206 17 -309 71 -187 98 -307 285 -327 512 -8 91 -13 1080 -5 1080 2 0 28 -11 57 -23 88 -38 149 -52 236 -52 67 0 86 4 110 21 49 36 73 82 73 138 0 96 -55 149 -168 161 -110 11 -197 61 -272 156 l-40 51 0 784 0 784 49 -30 c119 -73 254 -118 424 -141 122 -15 219 -9 254 17 98 73 99 214 2 273 -22 14 -60 21 -128 26 -287 20 -459 111 -547 290 -52 106 -56 175 -52 913 4 634 4 637 27 701 83 235 309 367 550 321z" transform="translate(0.000000,1600.000000) scale(0.100000,-0.100000)"/></g></svg>